<svg xmlns="http://www.w3.org/2000/svg" xmlns:xlink="http://www.w3.org/1999/xlink" width="500" zoomAndPan="magnify" viewBox="0 0 375 374.999991" height="500" preserveAspectRatio="xMidYMid meet" version="1.0"><defs><g/><clipPath id="b7fa3e9bae"><path d="M 104 46.472656 L 269 46.472656 L 269 244.472656 L 104 244.472656 Z M 104 46.472656 " clip-rule="nonzero"/></clipPath><clipPath id="8d36ba270b"><path d="M 116 58 L 254 58 L 254 244.472656 L 116 244.472656 Z M 116 58 " clip-rule="nonzero"/></clipPath><clipPath id="e5375b7537"><path d="M 44.554688 13.703125 L 330.304688 13.703125 L 330.304688 172 L 44.554688 172 Z M 44.554688 13.703125 " clip-rule="nonzero"/></clipPath><clipPath id="4ce9bfdb06"><path d="M 62 146 L 313 146 L 313 304.703125 L 62 304.703125 Z M 62 146 " clip-rule="nonzero"/></clipPath></defs><g clip-path="url(#b7fa3e9bae)"><path fill="#4effc4" d="M 257.023438 165.316406 C 246.59375 170.566406 232.230469 150.945312 252.433594 138.429688 C 272.636719 125.917969 265.195312 108.339844 265.195312 108.339844 C 265.195312 108.339844 266.046875 132.550781 240.488281 129.90625 C 214.933594 127.265625 259.199219 90.410156 222.898438 75.507812 C 240.3125 92.234375 224.058594 115.425781 215.058594 116.320312 C 204.871094 117.339844 191.890625 103.753906 199.695312 82.273438 C 207.503906 60.796875 180.535156 46.757812 180.535156 46.757812 C 180.535156 46.757812 198.4375 63.160156 182.492188 78.050781 C 170.007812 89.714844 165.859375 103.863281 167.296875 113.96875 C 162.308594 114.421875 157.457031 113.722656 154.558594 112.222656 C 145.46875 107.511719 141.851562 92.367188 149.128906 81.203125 C 126.824219 91.527344 155.699219 127.265625 130.140625 129.90625 C 104.597656 132.5625 105.4375 108.351562 105.4375 108.351562 C 105.4375 108.351562 97.996094 125.917969 118.199219 138.441406 C 138.402344 150.964844 123.882812 176.667969 114.242188 170.089844 C 104.597656 163.511719 111.875 146.046875 111.875 146.046875 C 111.875 146.046875 99.015625 167.195312 114.242188 177.851562 C 129.46875 188.507812 137.417969 192.742188 132.175781 194.433594 C 126.9375 196.125 118.972656 192.90625 116.097656 186.792969 C 117.582031 193.613281 123.605469 203.707031 129.414062 212.261719 C 136.421875 222.621094 146.574219 230.457031 158.363281 234.648438 L 185.320312 244.242188 L 221.503906 231.363281 C 226.699219 229.519531 231.234375 226.15625 234.519531 221.726562 C 241.285156 212.570312 252.445312 196.421875 254.535156 186.792969 C 251.660156 192.917969 241.285156 197.0625 238.554688 192.164062 C 235.867188 187.355469 240.5 182.546875 258.015625 176.324219 C 277.292969 169.472656 265.09375 146.5 258.769531 146.058594 C 262.152344 148.953125 266.929688 160.328125 257.023438 165.316406 Z M 257.023438 165.316406 " fill-opacity="1" fill-rule="nonzero"/></g><path fill="#4effc4" d="M 108.058594 113.570312 C 105.902344 109.433594 107.859375 104.914062 110.503906 101.054688 C 113.144531 97.199219 112.226562 92.191406 108.890625 89.382812 C 116.320312 89.152344 116.242188 98.347656 112.980469 102.105469 C 109.71875 105.863281 108.058594 113.570312 108.058594 113.570312 Z M 108.058594 113.570312 " fill-opacity="1" fill-rule="nonzero"/><path fill="#4effc4" d="M 113.644531 146.609375 C 113.644531 147.660156 111.886719 150.757812 112.59375 153.554688 C 113.300781 156.351562 114.527344 160.640625 114.527344 160.640625 C 114.527344 160.640625 117.414062 158.417969 115.492188 155.277344 C 113.566406 152.136719 113.644531 146.609375 113.644531 146.609375 Z M 113.644531 146.609375 " fill-opacity="1" fill-rule="nonzero"/><path fill="#4effc4" d="M 171.875 86.488281 C 172.429688 84.417969 177.007812 79.578125 179.683594 77.730469 C 182.359375 75.898438 182.910156 70.710938 182.910156 70.710938 C 182.910156 70.710938 178.84375 76.285156 177.050781 77.457031 C 171.875 80.859375 171.875 86.488281 171.875 86.488281 Z M 171.875 86.488281 " fill-opacity="1" fill-rule="nonzero"/><path fill="#000012" d="M 240.832031 205.078125 C 243.375 201.308594 245.910156 197.691406 247.035156 196.519531 C 238.753906 200.976562 235.402344 195.214844 235.148438 191.457031 C 234.863281 187.167969 241.550781 180.703125 248.339844 178.558594 C 258.394531 175.386719 264.90625 173.78125 266.144531 165.226562 C 261.144531 172.234375 250.410156 177.019531 246.695312 175.066406 C 242.976562 173.109375 248.816406 169.339844 250.242188 171.097656 C 244.40625 164.152344 241.332031 167.394531 238.941406 167.335938 C 236.554688 167.28125 236.664062 157.632812 237.613281 151.574219 C 238.566406 145.527344 246.847656 139.558594 246.847656 139.558594 C 246.847656 139.558594 242.117188 141.769531 234.984375 141.660156 C 227.851562 141.546875 218.441406 127.828125 220.5625 118.832031 C 214.933594 126.183594 215.863281 127.121094 214.613281 129.917969 C 210.367188 139.425781 204.417969 125.585938 204.417969 125.585938 L 197.652344 148.867188 L 190.972656 234.582031 L 222.054688 220.796875 C 229.675781 217.425781 236.175781 211.984375 240.832031 205.078125 Z M 240.832031 205.078125 " fill-opacity="1" fill-rule="nonzero"/><path fill="#000012" d="M 178.53125 96.710938 C 178.53125 96.710938 176.675781 89.570312 179.472656 85.691406 C 182.269531 81.820312 187.589844 78.671875 188.707031 73.410156 C 190.144531 79.246094 186.824219 81.160156 185.277344 83.070312 C 183.730469 84.984375 186.328125 90.5 190.574219 87.636719 C 194.820312 84.773438 195.316406 76.503906 193.703125 72.359375 C 197.683594 76.546875 196.964844 81.910156 194.855469 86.476562 C 192.742188 91.039062 194.855469 97.265625 194.855469 97.265625 C 194.855469 97.265625 187.070312 93.273438 184.414062 93.640625 C 181.761719 94.003906 178.53125 96.710938 178.53125 96.710938 Z M 178.53125 96.710938 " fill-opacity="1" fill-rule="nonzero"/><path fill="#000012" d="M 130.339844 205.265625 C 127.3125 201.152344 124.589844 197.539062 123.597656 196.511719 C 131.910156 198.742188 137.527344 196.34375 136.667969 192.675781 C 134.125 181.820312 119.472656 182.878906 114.527344 173.660156 C 124.171875 179.488281 135.097656 164.960938 132.34375 159.554688 C 130.429688 155.820312 140.160156 170.851562 138.734375 172.601562 C 144.574219 165.65625 141.398438 173.285156 143.789062 173.230469 C 146.175781 173.175781 139.960938 161.679688 139.011719 155.632812 C 138.058594 149.585938 123.773438 139.558594 123.773438 139.558594 C 123.773438 139.558594 128.503906 141.769531 135.636719 141.660156 C 142.769531 141.546875 152.191406 127.828125 150.070312 118.832031 C 156.714844 124.824219 166.421875 122.234375 166.421875 122.234375 L 172.980469 148.878906 L 177.25 231.996094 L 159.855469 226.445312 C 148.023438 222.675781 137.695312 215.269531 130.339844 205.265625 Z M 130.339844 205.265625 " fill-opacity="1" fill-rule="nonzero"/><g clip-path="url(#8d36ba270b)"><path fill="#4effc4" d="M 183.484375 242.339844 C 183.351562 242.199219 169.640625 228.003906 156.425781 212.285156 C 137.949219 190.296875 129.203125 176.058594 129.6875 168.765625 C 130.03125 163.746094 131.644531 159.6875 134.511719 156.726562 C 137 154.140625 140.449219 152.382812 144.761719 151.464844 L 131.191406 129.367188 C 128.363281 128.59375 125.886719 126.757812 124.347656 124.238281 L 118.640625 114.929688 C 115.292969 109.480469 117.003906 102.316406 122.457031 98.976562 C 124.292969 97.851562 126.382812 97.265625 128.503906 97.265625 C 129.414062 97.265625 130.332031 97.375 131.226562 97.585938 C 134.246094 98.304688 136.800781 100.160156 138.414062 102.804688 L 144.121094 112.097656 C 145.65625 114.609375 146.1875 117.648438 145.589844 120.523438 L 162.011719 147.273438 L 162.300781 147.285156 L 163.59375 147.285156 C 164.398438 146.257812 165.9375 143.902344 166.554688 140.089844 C 165.515625 136.871094 164.003906 129.222656 164.53125 112.695312 C 162.464844 110.851562 160.652344 108.738281 159.136719 106.394531 L 149.371094 91.371094 L 163.890625 101.863281 C 164.953125 102.636719 166.113281 103.324219 167.332031 103.929688 C 173.742188 91.925781 184.515625 90.410156 184.980469 90.355469 L 185.300781 90.3125 L 185.621094 90.355469 C 185.941406 90.398438 193.171875 91.394531 199.332031 98.269531 C 202.363281 94.753906 204.011719 90.5 204.011719 86.144531 C 204.011719 74.570312 193.503906 65.503906 180.101562 65.503906 C 179.0625 65.503906 177.546875 65.4375 175.789062 65.371094 C 173.324219 65.273438 170.25 65.140625 167.308594 65.140625 C 166.3125 65.140625 165.375 65.152344 164.523438 65.183594 L 158.109375 65.40625 L 163.945312 62.753906 C 170.449219 59.800781 177.824219 58.242188 185.289062 58.242188 C 202.484375 58.242188 216.484375 72.226562 216.484375 89.425781 C 216.484375 98.304688 212.691406 106.738281 206.066406 112.652344 C 206.574219 128.449219 205.28125 136.265625 204.042969 140.078125 C 204.664062 143.890625 206.1875 146.246094 207.007812 147.273438 L 208.578125 147.273438 L 225.007812 120.523438 C 224.410156 117.648438 224.941406 114.609375 226.480469 112.097656 L 232.1875 102.804688 C 233.8125 100.160156 236.367188 98.316406 239.375 97.585938 C 240.269531 97.375 241.175781 97.265625 242.09375 97.265625 C 244.226562 97.265625 246.316406 97.863281 248.140625 98.976562 C 253.59375 102.328125 255.308594 109.480469 251.957031 114.929688 L 246.25 124.226562 C 244.703125 126.734375 242.238281 128.582031 239.40625 129.355469 L 225.839844 151.453125 C 230.160156 152.359375 233.601562 154.128906 236.089844 156.714844 C 238.941406 159.675781 240.566406 163.722656 240.910156 168.753906 C 241.40625 176.046875 232.660156 190.285156 214.171875 212.273438 C 200.78125 228.214844 187.246094 242.199219 187.113281 242.339844 L 185.289062 244.230469 Z M 183.484375 242.339844 " fill-opacity="1" fill-rule="nonzero"/></g><path fill="#000012" d="M 247.511719 100.074219 C 245.886719 99.078125 244.019531 98.546875 242.125 98.546875 C 241.320312 98.546875 240.5 98.644531 239.703125 98.835938 C 237.019531 99.476562 234.75 101.121094 233.300781 103.476562 L 227.597656 112.773438 C 226.125 115.171875 225.695312 118.046875 226.402344 120.753906 L 209.195312 148.753906 L 209.085938 148.554688 L 206.441406 148.554688 C 205.636719 147.671875 203.488281 144.917969 202.769531 139.976562 C 203.84375 136.839844 205.402344 129.222656 204.804688 112.097656 C 211.441406 106.394531 215.246094 98.171875 215.246094 89.425781 C 215.246094 72.933594 201.820312 59.523438 185.332031 59.523438 C 183.296875 59.523438 174.199219 59.523438 164.523438 63.925781 C 170.261719 63.726562 177.214844 64.246094 180.148438 64.246094 C 194.277344 64.246094 205.324219 74.074219 205.324219 86.15625 C 205.324219 91.316406 203.214844 96.257812 199.332031 100.203125 C 193.316406 92.710938 185.832031 91.671875 185.5 91.625 L 185.332031 91.605469 L 185.167969 91.625 C 184.703125 91.683594 173.953125 93.207031 167.925781 105.621094 C 166.226562 104.871094 164.621094 103.964844 163.171875 102.902344 L 154.183594 96.414062 L 160.21875 105.710938 C 161.789062 108.121094 163.671875 110.277344 165.835938 112.144531 C 165.242188 129.246094 166.800781 136.859375 167.871094 139.988281 C 167.140625 144.929688 164.996094 147.695312 164.199219 148.566406 L 162.289062 148.566406 L 161.570312 148.554688 L 161.449219 148.765625 L 144.242188 120.742188 C 144.9375 118.046875 144.519531 115.160156 143.046875 112.761719 L 137.339844 103.464844 C 135.894531 101.113281 133.625 99.464844 130.9375 98.824219 C 130.140625 98.636719 129.324219 98.535156 128.515625 98.535156 C 126.625 98.535156 124.757812 99.066406 123.132812 100.0625 C 118.277344 103.035156 116.75 109.414062 119.726562 114.265625 L 125.433594 123.574219 C 126.902344 125.972656 129.28125 127.652344 132 128.25 L 146.816406 152.382812 C 136.933594 153.828125 131.601562 159.355469 130.960938 168.832031 C 130.496094 175.683594 139.398438 190.019531 157.398438 211.445312 C 170.679688 227.253906 184.269531 241.3125 184.402344 241.445312 L 185.320312 242.398438 L 186.238281 241.445312 C 186.371094 241.300781 199.960938 227.253906 213.242188 211.457031 C 231.246094 190.03125 240.148438 175.695312 239.683594 168.839844 C 239.042969 159.367188 233.710938 153.839844 223.824219 152.390625 L 238.644531 128.261719 C 241.375 127.664062 243.742188 125.984375 245.222656 123.585938 L 250.929688 114.289062 C 253.890625 109.425781 252.367188 103.046875 247.511719 100.074219 Z M 247.511719 100.074219 " fill-opacity="1" fill-rule="nonzero"/><path fill="#19523f" d="M 236.917969 166.375 C 236.277344 161.148438 230.703125 153.488281 218.761719 154.679688 C 204.75 153.882812 200.527344 142.101562 200.527344 142.101562 L 201.324219 137.964844 C 201.324219 137.964844 202.816406 128.09375 203.234375 122.84375 C 203.65625 117.59375 202.683594 111.304688 202.683594 111.304688 C 202.683594 111.304688 200.847656 104.460938 197.1875 100.878906 C 193.527344 97.296875 188.738281 94.046875 185.320312 93.960938 C 181.90625 94.046875 177.117188 97.296875 173.457031 100.878906 C 169.796875 104.460938 167.960938 111.304688 167.960938 111.304688 C 167.960938 111.304688 166.988281 117.59375 167.40625 122.84375 C 167.828125 128.09375 169.320312 137.964844 169.320312 137.964844 L 170.117188 142.101562 C 170.117188 142.101562 165.894531 153.882812 151.882812 154.679688 C 139.941406 153.488281 134.367188 161.148438 133.726562 166.375 C 133.082031 171.605469 137.121094 180.0625 146.785156 193.4375 C 156.449219 206.8125 185.320312 238.691406 185.320312 238.691406 C 185.320312 238.691406 214.195312 206.8125 223.859375 193.4375 C 233.511719 180.074219 237.558594 171.617188 236.917969 166.375 Z M 236.917969 166.375 " fill-opacity="1" fill-rule="nonzero"/><path fill="#0f3326" d="M 164.410156 160.507812 L 185.320312 187.578125 L 185.320312 189.09375 L 179.484375 184.164062 C 179.484375 184.164062 182.402344 188.472656 186.460938 192.398438 C 200.40625 189.105469 209.03125 177.828125 209.03125 177.828125 C 209.03125 177.828125 200.96875 191.28125 186.40625 197.75 C 177.902344 195.085938 170.527344 184.550781 170.527344 184.550781 C 170.527344 184.550781 174.871094 195.027344 185.941406 200.789062 C 197.34375 197.492188 208.265625 188.683594 208.265625 188.683594 C 208.265625 188.683594 203.964844 196.179688 185.34375 207.332031 C 204.175781 200.367188 220.707031 187.457031 233.035156 172.632812 C 225.394531 195.492188 193.683594 229.375 193.683594 229.375 L 185.332031 236.238281 C 185.332031 236.238281 146.917969 194.71875 144.253906 186.78125 C 141.585938 178.835938 138.546875 164.519531 138.546875 164.519531 L 146.410156 155.652344 Z M 164.410156 160.507812 " fill-opacity="1" fill-rule="nonzero"/><path fill="#0f3326" d="M 177.273438 130.835938 L 185.320312 133.070312 C 185.320312 133.070312 185.15625 135.820312 182.390625 136.363281 C 184.789062 137.800781 190.871094 137.082031 194.179688 134.980469 C 191.414062 139.003906 184.558594 139.195312 184.558594 139.195312 C 184.558594 139.195312 188.042969 141.414062 193.582031 140.101562 C 190.996094 142.6875 185.785156 142.199219 185.785156 142.199219 C 185.785156 142.199219 187.457031 144.621094 192.433594 143.21875 C 191.050781 145.5625 185.785156 145.382812 185.785156 145.382812 C 185.785156 145.382812 187.722656 146.886719 191.535156 145.382812 C 190.210938 148.6875 185.332031 150.691406 185.332031 150.691406 C 185.332031 150.691406 174.484375 145.472656 171.996094 142.199219 C 169.507812 138.929688 169.375 136.199219 169.375 136.199219 L 169 124.832031 Z M 177.273438 130.835938 " fill-opacity="1" fill-rule="nonzero"/><path fill="#0f3326" d="M 170.78125 114.109375 C 170.78125 114.109375 173.003906 118.277344 177.757812 120.023438 C 182.511719 121.78125 185.3125 125.894531 185.3125 125.894531 C 185.3125 125.894531 190.839844 122.589844 193.625 121.308594 C 191.757812 124.457031 185.101562 128.890625 185.101562 128.890625 C 185.101562 128.890625 179.648438 123.441406 176.089844 121.960938 C 172.527344 120.480469 169.695312 118.589844 168.96875 116.785156 C 168.238281 114.984375 168.558594 112.210938 168.558594 112.210938 Z M 170.78125 114.109375 " fill-opacity="1" fill-rule="nonzero"/><path fill="#0f3326" d="M 169.730469 105.753906 L 169.730469 108.152344 L 178.046875 110.1875 L 180.3125 109.867188 L 185.320312 105.058594 L 189.734375 108.617188 L 191.347656 107.921875 L 185.113281 102.195312 C 185.113281 102.195312 180.445312 107.046875 178.453125 107.046875 C 176.464844 107.046875 173.742188 105.246094 174.527344 103.210938 C 175.3125 101.179688 178.53125 97.253906 178.53125 97.253906 C 178.53125 97.253906 173.222656 100.613281 171.953125 102.625 C 170.691406 104.648438 169.730469 105.753906 169.730469 105.753906 Z M 169.730469 105.753906 " fill-opacity="1" fill-rule="nonzero"/><path fill="#288264" d="M 234.210938 160.285156 C 234.210938 160.285156 232.640625 154.734375 223.03125 155.640625 C 213.429688 156.546875 208.089844 153.386719 208.089844 153.386719 C 208.089844 153.386719 204.53125 170.058594 195.550781 179.476562 C 204.175781 174.234375 211.828125 160.097656 211.828125 160.097656 C 211.828125 160.097656 211.652344 166.851562 206.132812 174.5 C 213.066406 171.394531 218.140625 161.167969 218.140625 161.167969 C 218.140625 161.167969 218.230469 170.5 211.296875 179.929688 C 220.011719 177.175781 227.121094 160.726562 227.121094 160.726562 C 227.121094 160.726562 228.546875 171.835938 214.050781 183.84375 C 220.15625 180.625 224.542969 176.390625 227.628906 172.402344 L 233.789062 164.640625 C 233.789062 164.640625 238.53125 170.410156 228.46875 186.78125 C 239.394531 176.371094 239.007812 164.410156 234.210938 160.285156 Z M 234.210938 160.285156 " fill-opacity="1" fill-rule="nonzero"/><path fill="#288264" d="M 202.117188 121.859375 C 202.117188 121.859375 192.441406 132.828125 190.351562 132.957031 C 188.261719 133.101562 186.304688 133.675781 186.304688 133.675781 C 186.304688 133.675781 189.867188 135.226562 194.753906 132.570312 C 199.640625 129.917969 200.824219 127.476562 200.824219 127.476562 C 200.824219 127.476562 199.089844 131.277344 195.96875 133.476562 C 198.414062 132.460938 200.371094 130.859375 200.371094 130.859375 C 200.371094 130.859375 198.835938 133.898438 195.96875 136.164062 C 197.507812 135.710938 199.984375 133.753906 199.984375 133.753906 C 199.984375 133.753906 198.589844 137.347656 195.695312 139.304688 C 197.929688 138.398438 199.742188 136.75 199.742188 136.75 C 199.742188 136.75 197.960938 140.519531 195.792969 141.992188 C 199.5 140.066406 202.117188 135.257812 202.117188 135.257812 L 203.300781 124.824219 L 203.300781 121.574219 Z M 202.117188 121.859375 " fill-opacity="1" fill-rule="nonzero"/><path fill="#288264" d="M 188.429688 122.234375 L 191.359375 118.863281 C 191.359375 118.863281 196.964844 117.835938 199.707031 115.425781 C 197.21875 119.085938 194.003906 119.527344 192.574219 119.894531 C 191.128906 120.257812 188.429688 122.234375 188.429688 122.234375 Z M 188.429688 122.234375 " fill-opacity="1" fill-rule="nonzero"/><path fill="#288264" d="M 184.503906 94.027344 C 184.503906 94.027344 189.523438 95.03125 192.300781 96.84375 C 195.074219 98.65625 195.761719 102.183594 193.527344 102.8125 C 191.292969 103.445312 187.421875 98.703125 185.5 98.578125 C 183.574219 98.457031 181.285156 99.816406 179.605469 99.453125 C 177.925781 99.089844 178.253906 96.855469 180.542969 95.660156 C 182.832031 94.457031 184.503906 94.027344 184.503906 94.027344 Z M 184.503906 94.027344 " fill-opacity="1" fill-rule="nonzero"/><path fill="#404040" d="M 208.234375 152.769531 L 220.386719 155.277344 L 237.40625 125.675781 C 237.40625 125.675781 240.421875 126.195312 242.558594 123.097656 C 244.691406 120.003906 250.289062 110.871094 250.289062 110.871094 C 250.289062 110.871094 250.144531 104.394531 246.242188 102.40625 C 242.335938 100.414062 236.078125 103.433594 236.078125 103.433594 C 236.078125 103.433594 229.519531 113.96875 228.855469 115.878906 C 228.195312 117.792969 229.265625 120.222656 229.265625 120.222656 L 210.003906 151.507812 Z M 208.234375 152.769531 " fill-opacity="1" fill-rule="nonzero"/><path fill="#404040" d="M 163.285156 106.230469 C 163.285156 106.230469 174.507812 111.125 180.191406 110.1875 C 179.539062 109.335938 185.664062 105.335938 185.664062 105.335938 L 189.988281 108.992188 C 189.988281 108.992188 204.140625 102.636719 206.894531 91.328125 C 209.660156 80.03125 201.125 65.550781 185.089844 62.289062 C 193.835938 61.535156 215.785156 68.359375 212.703125 94.027344 C 210.367188 112.222656 190.097656 116.929688 190.097656 116.929688 L 185.320312 122.234375 L 180.542969 117.03125 C 180.535156 117.03125 167.152344 115.492188 163.285156 106.230469 Z M 163.285156 106.230469 " fill-opacity="1" fill-rule="nonzero"/><path fill="#404040" d="M 162.410156 152.769531 L 150.257812 155.277344 L 133.238281 125.664062 C 133.238281 125.664062 130.21875 126.183594 128.085938 123.085938 C 125.953125 119.992188 120.355469 110.859375 120.355469 110.859375 C 120.355469 110.859375 120.5 104.382812 124.402344 102.394531 C 128.308594 100.402344 134.566406 103.421875 134.566406 103.421875 C 134.566406 103.421875 141.121094 113.957031 141.785156 115.867188 C 142.449219 117.78125 141.378906 120.214844 141.378906 120.214844 L 160.640625 151.507812 Z M 162.410156 152.769531 " fill-opacity="1" fill-rule="nonzero"/><path fill="#a6a6a6" d="M 189.347656 108.308594 L 190.210938 109.535156 L 191.09375 112.222656 C 191.09375 112.222656 208.644531 106.683594 209.671875 88.375 C 210.699219 70.070312 193.96875 63.824219 188.441406 62.574219 C 202.339844 69.441406 206.089844 75.886719 206.886719 83.203125 C 207.679688 90.519531 204.992188 104.503906 189.347656 108.308594 Z M 189.347656 108.308594 " fill-opacity="1" fill-rule="nonzero"/><path fill="#a6a6a6" d="M 164.554688 106.761719 L 165.164062 107.480469 C 165.164062 107.480469 171.566406 113.105469 180.753906 113.269531 C 180.222656 112.421875 180.191406 110.199219 180.191406 110.199219 C 180.191406 110.199219 165.496094 108.375 164.554688 106.761719 Z M 164.554688 106.761719 " fill-opacity="1" fill-rule="nonzero"/><path fill="#a6a6a6" d="M 232.394531 118.136719 C 232.394531 118.136719 231.078125 117.171875 233.800781 112.894531 C 236.519531 108.617188 241.5625 101.332031 241.5625 101.332031 C 241.5625 101.332031 236.929688 101.960938 234.597656 105.84375 C 232.25 109.710938 228.449219 116.699219 228.449219 116.699219 L 229.121094 119.828125 Z M 232.394531 118.136719 " fill-opacity="1" fill-rule="nonzero"/><path fill="#a6a6a6" d="M 212.027344 153.542969 L 233.964844 118.832031 C 233.964844 118.832031 230.472656 116.621094 226.765625 124.269531 C 223.0625 131.917969 209.042969 153.398438 209.042969 153.398438 Z M 212.027344 153.542969 " fill-opacity="1" fill-rule="nonzero"/><path fill="#a6a6a6" d="M 185.320312 108.351562 C 185.355469 108.484375 185.320312 117.835938 185.320312 117.835938 L 188.140625 115.867188 L 188.140625 110.785156 Z M 185.320312 108.351562 " fill-opacity="1" fill-rule="nonzero"/><path fill="#a6a6a6" d="M 138.238281 118.136719 C 138.238281 118.136719 139.554688 117.171875 136.832031 112.894531 C 134.113281 108.617188 129.070312 101.332031 129.070312 101.332031 C 129.070312 101.332031 133.703125 101.960938 136.035156 105.84375 C 138.378906 109.710938 142.183594 116.699219 142.183594 116.699219 L 141.511719 119.828125 Z M 138.238281 118.136719 " fill-opacity="1" fill-rule="nonzero"/><path fill="#a6a6a6" d="M 158.605469 153.542969 L 136.667969 118.832031 C 136.667969 118.832031 140.160156 116.621094 143.867188 124.269531 C 147.570312 131.917969 161.589844 153.398438 161.589844 153.398438 Z M 158.605469 153.542969 " fill-opacity="1" fill-rule="nonzero"/><path fill="#a6a6a6" d="M 185.320312 108.351562 C 185.289062 108.484375 185.320312 117.835938 185.320312 117.835938 L 182.503906 115.867188 L 182.503906 110.785156 Z M 185.320312 108.351562 " fill-opacity="1" fill-rule="nonzero"/><path fill="#4effc4" d="M 179.117188 95.914062 L 178.53125 97.253906 C 178.53125 97.253906 184.203125 94.324219 189.566406 96.589844 C 194.929688 98.855469 197.617188 104.238281 197.617188 104.238281 L 198.890625 103.199219 C 198.890625 103.199219 194.566406 97.097656 190.164062 95.242188 C 185.773438 93.382812 179.117188 95.914062 179.117188 95.914062 Z M 179.117188 95.914062 " fill-opacity="1" fill-rule="nonzero"/><path fill="#4effc4" d="M 181.972656 129.5 C 181.972656 129.5 181.59375 125.519531 178.253906 124.125 C 174.925781 122.722656 173.070312 122.953125 173.070312 122.953125 C 173.070312 122.953125 173.035156 124.703125 174.429688 127.078125 C 175.835938 129.453125 180.910156 130.328125 181.972656 129.5 Z M 181.972656 129.5 " fill-opacity="1" fill-rule="nonzero"/><path fill="#4effc4" d="M 188.429688 129.5 C 188.429688 129.5 190.617188 125.519531 192.808594 124.125 C 195.007812 122.722656 197.664062 122.457031 197.664062 122.457031 C 197.664062 122.457031 196.753906 126.46875 194.367188 128.667969 C 191.980469 130.871094 188.429688 129.5 188.429688 129.5 Z M 188.429688 129.5 " fill-opacity="1" fill-rule="nonzero"/><path fill="#4effc4" d="M 186.726562 128.238281 L 185.3125 127.761719 C 185.3125 127.761719 188.707031 124.269531 192.488281 121.574219 C 196.589844 118.644531 200.09375 118.675781 201.53125 114.320312 C 201.6875 118.023438 196.046875 121.152344 194.15625 121.949219 C 192.289062 122.734375 186.726562 128.238281 186.726562 128.238281 Z M 186.726562 128.238281 " fill-opacity="1" fill-rule="nonzero"/><path fill="#4effc4" d="M 185.210938 133.15625 C 185.210938 133.15625 188.21875 135.789062 193.945312 132.382812 C 199.675781 128.980469 201.964844 124.613281 201.964844 124.613281 C 201.964844 124.613281 201.199219 133.941406 200.878906 136.296875 C 200.558594 138.640625 199.011719 140.476562 199.011719 140.476562 C 199.011719 140.476562 201.523438 137.625 201.953125 136.042969 C 203.257812 129.820312 202.671875 121.574219 202.671875 121.574219 C 202.671875 121.574219 195.183594 131.058594 193.027344 131.789062 C 190.871094 132.515625 185.210938 133.15625 185.210938 133.15625 Z M 185.210938 133.15625 " fill-opacity="1" fill-rule="nonzero"/><path fill="#4effc4" d="M 206.574219 154.601562 L 206.960938 157.644531 C 206.960938 157.644531 208.410156 159.390625 216.75 157.953125 C 225.085938 156.515625 227.296875 157.742188 230.9375 159.886719 C 234.574219 162.042969 237.128906 166.101562 234.078125 174.6875 C 237.195312 171.4375 237.382812 164.71875 235.4375 162.066406 C 233.492188 159.421875 230.847656 155.386719 223.230469 155.246094 C 215.609375 155.101562 206.574219 154.601562 206.574219 154.601562 Z M 206.574219 154.601562 " fill-opacity="1" fill-rule="nonzero"/><path fill="#4effc4" d="M 216.074219 154.382812 L 236.265625 122.234375 C 236.265625 122.234375 235.789062 120.003906 233.964844 118.832031 C 238.191406 119.949219 237.605469 124.25 237.605469 124.25 L 219.613281 154.382812 Z M 216.074219 154.382812 " fill-opacity="1" fill-rule="nonzero"/><path fill="#4effc4" d="M 244.878906 101.332031 C 244.878906 101.332031 250.453125 106.207031 246.363281 113.582031 C 242.269531 120.953125 238.953125 125.585938 238.953125 125.585938 L 242.800781 123.296875 L 249.910156 109.976562 C 249.910156 109.976562 250.066406 105.46875 248.851562 103.875 C 247.632812 102.28125 244.878906 101.332031 244.878906 101.332031 Z M 244.878906 101.332031 " fill-opacity="1" fill-rule="nonzero"/><path fill="#4effc4" d="M 154.558594 154.382812 L 134.367188 122.234375 C 134.367188 122.234375 134.84375 120.003906 136.667969 118.832031 C 132.441406 119.949219 133.027344 124.25 133.027344 124.25 L 151.019531 154.382812 Z M 154.558594 154.382812 " fill-opacity="1" fill-rule="nonzero"/><path fill="#4effc4" d="M 125.761719 101.332031 C 125.761719 101.332031 120.191406 106.207031 124.28125 113.582031 C 128.375 120.953125 131.691406 125.585938 131.691406 125.585938 L 127.84375 123.296875 L 120.730469 109.976562 C 120.730469 109.976562 120.578125 105.46875 121.792969 103.875 C 123 102.28125 125.761719 101.332031 125.761719 101.332031 Z M 125.761719 101.332031 " fill-opacity="1" fill-rule="nonzero"/><path fill="#000012" d="M 246.847656 101.15625 C 244.792969 99.894531 242.359375 99.507812 240.003906 100.0625 C 237.648438 100.625 235.65625 102.074219 234.398438 104.128906 L 228.691406 113.425781 C 227.296875 115.703125 226.976562 118.398438 227.785156 120.921875 L 209.363281 150.921875 C 208.644531 150.3125 208.355469 149.828125 208.355469 149.828125 L 205.910156 149.828125 C 205.910156 149.828125 202.382812 146.777344 201.464844 139.847656 C 202.460938 137.117188 204.1875 129.644531 203.511719 111.523438 C 209.894531 106.273438 213.972656 98.316406 213.972656 89.425781 C 213.972656 73.640625 201.125 60.796875 185.332031 60.796875 C 183.386719 60.796875 181.429688 60.996094 179.539062 61.382812 L 171.875 62.964844 L 179.703125 62.964844 C 194.53125 62.964844 206.609375 73.363281 206.609375 86.15625 C 206.609375 92.335938 203.789062 97.949219 199.1875 102.117188 C 193.304688 93.914062 185.34375 92.898438 185.34375 92.898438 C 185.34375 92.898438 174.265625 94.324219 168.589844 107.269531 C 166.390625 106.40625 164.324219 105.289062 162.441406 103.941406 L 158.980469 101.441406 L 161.304688 105.023438 C 162.929688 107.535156 164.910156 109.734375 167.152344 111.570312 C 166.480469 129.675781 168.203125 137.125 169.199219 139.855469 C 168.269531 146.789062 164.753906 149.839844 164.753906 149.839844 L 162.308594 149.839844 C 162.308594 149.839844 162.023438 150.324219 161.304688 150.933594 L 142.859375 120.933594 C 143.667969 118.410156 143.355469 115.703125 141.953125 113.4375 L 136.246094 104.140625 C 134.984375 102.085938 132.984375 100.636719 130.640625 100.074219 C 128.285156 99.507812 125.851562 99.894531 123.796875 101.167969 C 119.539062 103.777344 118.199219 109.367188 120.808594 113.613281 L 126.515625 122.910156 C 127.910156 125.1875 130.175781 126.691406 132.796875 127.109375 L 148.953125 153.421875 C 142.039062 154.015625 133.0625 156.613281 132.230469 168.929688 C 131.171875 184.636719 185.3125 240.5625 185.3125 240.5625 C 185.3125 240.5625 239.449219 184.625 238.390625 168.929688 C 237.558594 156.625 228.582031 154.027344 221.667969 153.421875 L 237.824219 127.109375 C 240.445312 126.691406 242.703125 125.1875 244.105469 122.910156 L 249.8125 113.613281 C 252.445312 109.347656 251.105469 103.765625 246.847656 101.15625 Z M 203.65625 154.207031 C 205.777344 156.871094 205.191406 160.574219 189.679688 180.25 C 201.265625 161.722656 203.46875 159.179688 201.609375 156.285156 C 199.753906 153.386719 199.875 147.714844 199.875 147.714844 C 199.875 147.714844 201.542969 151.542969 203.65625 154.207031 Z M 208.179688 86.144531 C 208.179688 75.144531 199.886719 65.792969 188.460938 62.566406 C 201.910156 64.125 212.378906 75.574219 212.378906 89.425781 C 212.378906 102.347656 203.257812 113.183594 191.117188 115.835938 L 191.117188 109.039062 L 190.949219 108.894531 C 201.070312 105.101562 208.179688 96.335938 208.179688 86.144531 Z M 196.855469 119.539062 C 192.398438 121.417969 185.320312 127.761719 185.320312 127.761719 C 185.320312 127.761719 178.246094 121.417969 173.789062 119.539062 C 170.140625 118.003906 169.011719 115.394531 168.945312 112.929688 C 172.117188 115.140625 175.710938 116.6875 179.539062 117.472656 L 179.539062 117.503906 L 185.320312 123.386719 L 191.105469 117.503906 L 191.105469 117.472656 C 194.976562 116.675781 198.570312 115.09375 201.699219 112.90625 C 201.632812 115.371094 200.515625 117.992188 196.855469 119.539062 Z M 197.042969 123.597656 C 194.765625 130.183594 189.414062 129.386719 189.414062 129.386719 C 189.414062 129.386719 190.453125 124.347656 197.042969 123.597656 Z M 181.21875 129.378906 C 181.21875 129.378906 175.867188 130.171875 173.589844 123.585938 C 180.179688 124.347656 181.21875 129.378906 181.21875 129.378906 Z M 181.195312 116.53125 L 181.195312 109.734375 L 185.320312 105.910156 L 189.445312 109.734375 L 189.445312 116.53125 L 185.320312 120.589844 Z M 185.320312 95.066406 C 190.804688 95.066406 195.0625 99.109375 197.851562 103.222656 C 195.441406 105.136719 192.621094 106.671875 189.523438 107.722656 L 185.320312 104.195312 L 179.539062 109.046875 L 179.539062 109.335938 C 176.332031 109.324219 173.179688 108.804688 170.214844 107.84375 C 172.4375 102.878906 177.691406 95.066406 185.320312 95.066406 Z M 165.164062 107.46875 C 169.488281 109.691406 174.460938 110.894531 179.539062 110.917969 L 179.539062 115.835938 C 174 114.640625 168.96875 111.722656 165.164062 107.46875 Z M 168.238281 122.511719 C 172.304688 130.238281 181.882812 136.285156 185.320312 133.070312 C 188.761719 136.285156 198.335938 130.25 202.40625 122.511719 C 202.605469 126.96875 201.246094 136.453125 201.246094 136.453125 C 195.40625 146.953125 185.320312 149.828125 185.320312 149.828125 C 185.320312 149.828125 175.238281 146.953125 169.398438 136.453125 C 169.398438 136.453125 168.039062 126.96875 168.238281 122.511719 Z M 166.976562 154.207031 C 169.101562 151.542969 170.757812 147.726562 170.757812 147.726562 C 170.757812 147.726562 170.867188 153.398438 169.023438 156.292969 C 167.164062 159.191406 169.363281 161.734375 180.941406 180.25 C 165.441406 160.574219 164.851562 156.871094 166.976562 154.207031 Z M 123.773438 111.183594 L 131.191406 123.265625 C 131.203125 123.363281 131.214844 123.464844 131.226562 123.5625 C 131.238281 123.628906 131.25 123.695312 131.257812 123.761719 C 131.28125 123.871094 131.304688 123.992188 131.324219 124.105469 C 131.335938 124.171875 131.359375 124.226562 131.371094 124.292969 C 131.382812 124.324219 131.382812 124.347656 131.390625 124.378906 C 130.1875 123.828125 129.148438 122.921875 128.429688 121.75 L 122.722656 112.453125 C 120.753906 109.246094 121.761719 105.035156 124.96875 103.066406 C 126.527344 102.117188 128.351562 101.820312 130.132812 102.25 C 131.902344 102.671875 133.40625 103.765625 134.355469 105.3125 L 140.0625 114.609375 C 140.78125 115.78125 141.121094 117.105469 141.066406 118.445312 C 141.046875 118.421875 141.023438 118.410156 141.011719 118.390625 C 140.945312 118.324219 140.867188 118.269531 140.800781 118.210938 C 140.726562 118.144531 140.648438 118.089844 140.570312 118.035156 C 140.492188 117.980469 140.414062 117.925781 140.339844 117.878906 C 140.261719 117.824219 140.183594 117.769531 140.09375 117.726562 C 140.015625 117.683594 139.929688 117.636719 139.851562 117.59375 C 139.773438 117.550781 139.683594 117.503906 139.597656 117.460938 C 139.507812 117.417969 139.429688 117.382812 139.34375 117.351562 C 139.253906 117.316406 139.175781 117.285156 139.089844 117.25 C 139 117.21875 138.910156 117.195312 138.824219 117.164062 C 138.734375 117.140625 138.644531 117.105469 138.558594 117.085938 C 138.46875 117.0625 138.378906 117.039062 138.28125 117.019531 C 138.191406 116.996094 138.105469 116.984375 138.003906 116.964844 C 137.917969 116.953125 137.816406 116.929688 137.726562 116.929688 C 137.640625 116.917969 137.539062 116.90625 137.453125 116.90625 C 137.363281 116.898438 137.265625 116.898438 137.175781 116.898438 C 137.132812 116.898438 137.085938 116.886719 137.042969 116.886719 C 136.964844 116.886719 136.898438 116.886719 136.820312 116.898438 C 136.777344 116.898438 136.742188 116.898438 136.699219 116.898438 C 136.535156 116.90625 136.367188 116.917969 136.203125 116.953125 C 136.15625 116.964844 136.125 116.964844 136.082031 116.972656 C 135.949219 116.996094 135.816406 117.019531 135.683594 117.050781 C 135.636719 117.0625 135.59375 117.074219 135.550781 117.085938 C 135.382812 117.128906 135.21875 117.171875 135.0625 117.238281 C 135.042969 117.25 135.007812 117.261719 134.984375 117.273438 C 134.84375 117.328125 134.710938 117.382812 134.566406 117.449219 C 134.519531 117.472656 134.476562 117.492188 134.433594 117.515625 C 134.367188 117.550781 134.289062 117.59375 134.222656 117.625 L 126.117188 104.425781 C 122.414062 106.109375 123.871094 111.183594 123.773438 111.183594 Z M 135.59375 127.398438 L 134.785156 126.082031 L 133.925781 124.691406 C 133.0625 123.285156 133.261719 121.527344 134.289062 120.347656 C 134.519531 120.070312 134.808594 119.835938 135.128906 119.636719 C 135.261719 119.5625 135.394531 119.496094 135.527344 119.429688 C 135.570312 119.40625 135.605469 119.394531 135.648438 119.375 C 135.761719 119.328125 135.871094 119.285156 135.980469 119.25 C 136.015625 119.242188 136.046875 119.230469 136.082031 119.21875 C 136.222656 119.175781 136.367188 119.152344 136.511719 119.128906 C 136.546875 119.128906 136.589844 119.117188 136.621094 119.117188 C 136.734375 119.109375 136.855469 119.097656 136.964844 119.097656 C 137.007812 119.097656 137.066406 119.097656 137.109375 119.097656 C 137.199219 119.097656 137.285156 119.109375 137.375 119.109375 C 137.417969 119.109375 137.460938 119.117188 137.507812 119.117188 C 137.640625 119.140625 137.773438 119.164062 137.90625 119.183594 C 138.855469 119.417969 139.664062 120.003906 140.183594 120.832031 L 159.390625 152.117188 C 158.40625 152.570312 157.136719 152.957031 155.507812 153.132812 L 153.265625 149.484375 C 153.828125 148.878906 154.667969 148.480469 155.609375 148.480469 C 155.953125 148.480469 156.273438 148.535156 156.582031 148.621094 C 156.027344 148.148438 155.300781 147.859375 154.492188 147.859375 C 153.796875 147.859375 153.152344 148.082031 152.632812 148.445312 L 151.109375 145.957031 C 151.671875 145.339844 152.511719 144.953125 153.464844 144.953125 C 153.804688 144.953125 154.128906 145.007812 154.4375 145.097656 C 153.882812 144.621094 153.152344 144.332031 152.347656 144.332031 C 151.648438 144.332031 150.996094 144.554688 150.476562 144.917969 L 148.953125 142.433594 C 149.515625 141.8125 150.367188 141.425781 151.308594 141.425781 C 151.648438 141.425781 151.972656 141.480469 152.28125 141.570312 C 151.726562 141.09375 150.996094 140.808594 150.191406 140.808594 C 149.484375 140.808594 148.839844 141.027344 148.320312 141.394531 L 146.796875 138.90625 C 147.359375 138.285156 148.210938 137.890625 149.152344 137.890625 C 149.492188 137.890625 149.816406 137.945312 150.125 138.03125 C 149.570312 137.558594 148.839844 137.269531 148.035156 137.269531 C 147.328125 137.269531 146.675781 137.492188 146.15625 137.855469 L 144.628906 135.378906 C 145.191406 134.761719 146.042969 134.363281 146.996094 134.363281 C 147.335938 134.363281 147.660156 134.417969 147.96875 134.507812 C 147.414062 134.03125 146.683594 133.742188 145.878906 133.742188 C 145.171875 133.742188 144.519531 133.964844 144 134.339844 L 142.472656 131.863281 C 143.035156 131.246094 143.886719 130.847656 144.839844 130.847656 C 145.179688 130.847656 145.503906 130.902344 145.8125 130.992188 C 145.257812 130.515625 144.527344 130.226562 143.722656 130.226562 C 143.015625 130.226562 142.363281 130.449219 141.839844 130.824219 L 140.316406 128.347656 C 140.878906 127.71875 141.730469 127.320312 142.683594 127.320312 C 143.023438 127.320312 143.34375 127.375 143.65625 127.464844 C 143.101562 126.988281 142.371094 126.703125 141.566406 126.703125 C 140.859375 126.703125 140.195312 126.921875 139.675781 127.300781 L 138.148438 124.824219 C 138.710938 124.191406 139.5625 123.792969 140.527344 123.792969 C 140.867188 123.792969 141.1875 123.851562 141.5 123.9375 C 140.945312 123.464844 140.214844 123.175781 139.410156 123.175781 C 138.691406 123.175781 138.039062 123.40625 137.519531 123.785156 L 136.167969 121.582031 C 136.734375 120.84375 137.652344 120.367188 138.703125 120.367188 C 139.042969 120.367188 139.363281 120.421875 139.675781 120.511719 C 139.121094 120.035156 138.390625 119.75 137.585938 119.75 C 136.789062 119.75 136.058594 120.035156 135.503906 120.488281 C 135.503906 120.488281 134.355469 121.453125 134.355469 122.359375 C 134.355469 122.359375 134.355469 122.367188 134.355469 122.367188 C 134.355469 122.367188 134.355469 122.378906 134.355469 122.378906 C 134.355469 123.351562 134.710938 124.535156 134.6875 124.535156 L 152.292969 153.199219 C 152.039062 153.210938 151.761719 153.210938 151.496094 153.222656 Z M 230.0625 158.109375 C 236.5 162.5625 240.566406 166.542969 227.675781 185.808594 C 214.78125 205.078125 185.3125 235.476562 185.3125 235.476562 C 185.3125 235.476562 155.851562 205.066406 142.949219 185.808594 C 130.042969 166.554688 134.125 162.574219 140.558594 158.109375 C 146.03125 154.316406 156.027344 158.582031 162.90625 156.417969 C 163.480469 158.957031 164.554688 161.933594 166.523438 164.796875 C 171.410156 171.902344 185.3125 189.105469 185.3125 189.105469 C 185.3125 189.105469 199.222656 171.914062 204.097656 164.796875 C 206.066406 161.933594 207.128906 158.957031 207.714844 156.417969 C 214.601562 158.582031 224.589844 154.304688 230.0625 158.109375 Z M 236.707031 124.691406 L 235.847656 126.082031 L 235.039062 127.398438 L 219.148438 153.277344 C 218.871094 153.265625 218.605469 153.253906 218.351562 153.253906 L 235.957031 124.589844 C 235.921875 124.589844 236.277344 123.417969 236.289062 122.433594 C 236.289062 122.433594 236.289062 122.425781 236.289062 122.425781 C 236.289062 122.425781 236.289062 122.414062 236.289062 122.414062 C 236.289062 121.507812 235.136719 120.542969 235.136719 120.542969 C 234.585938 120.082031 233.867188 119.804688 233.058594 119.804688 C 232.25 119.804688 231.523438 120.089844 230.96875 120.566406 C 231.277344 120.46875 231.597656 120.421875 231.941406 120.421875 C 232.980469 120.421875 233.910156 120.910156 234.472656 121.640625 L 233.125 123.839844 C 232.605469 123.464844 231.941406 123.230469 231.234375 123.230469 C 230.425781 123.230469 229.699219 123.519531 229.144531 123.992188 C 229.453125 123.894531 229.773438 123.851562 230.117188 123.851562 C 231.070312 123.851562 231.921875 124.25 232.496094 124.878906 L 230.96875 127.355469 C 230.449219 126.980469 229.796875 126.757812 229.078125 126.757812 C 228.269531 126.757812 227.542969 127.042969 226.988281 127.519531 C 227.296875 127.421875 227.617188 127.375 227.960938 127.375 C 228.914062 127.375 229.765625 127.773438 230.328125 128.40625 L 228.800781 130.878906 C 228.28125 130.503906 227.628906 130.285156 226.921875 130.285156 C 226.113281 130.285156 225.386719 130.570312 224.832031 131.046875 C 225.140625 130.945312 225.460938 130.902344 225.804688 130.902344 C 226.757812 130.902344 227.609375 131.300781 228.171875 131.917969 L 226.644531 134.394531 C 226.125 134.019531 225.472656 133.800781 224.765625 133.800781 C 223.957031 133.800781 223.230469 134.085938 222.675781 134.5625 C 222.984375 134.460938 223.304688 134.417969 223.648438 134.417969 C 224.601562 134.417969 225.441406 134.816406 226.015625 135.433594 L 224.488281 137.910156 C 223.96875 137.546875 223.316406 137.324219 222.609375 137.324219 C 221.800781 137.324219 221.074219 137.613281 220.519531 138.089844 C 220.828125 137.988281 221.148438 137.945312 221.492188 137.945312 C 222.433594 137.945312 223.285156 138.34375 223.847656 138.960938 L 222.320312 141.449219 C 221.800781 141.082031 221.148438 140.863281 220.453125 140.863281 C 219.644531 140.863281 218.914062 141.148438 218.363281 141.625 C 218.671875 141.527344 218.992188 141.480469 219.335938 141.480469 C 220.277344 141.480469 221.117188 141.878906 221.691406 142.488281 L 220.164062 144.976562 C 219.644531 144.609375 219.003906 144.390625 218.296875 144.390625 C 217.488281 144.390625 216.757812 144.675781 216.207031 145.152344 C 216.515625 145.050781 216.835938 145.007812 217.179688 145.007812 C 218.121094 145.007812 218.960938 145.394531 219.535156 146.015625 L 218.007812 148.5 C 217.488281 148.136719 216.847656 147.914062 216.152344 147.914062 C 215.34375 147.914062 214.613281 148.203125 214.0625 148.679688 C 214.371094 148.578125 214.691406 148.535156 215.035156 148.535156 C 215.972656 148.535156 216.816406 148.921875 217.378906 149.539062 L 215.132812 153.1875 C 213.507812 153.023438 212.226562 152.625 211.253906 152.171875 L 230.449219 120.910156 C 230.957031 120.070312 231.777344 119.484375 232.726562 119.261719 C 232.859375 119.230469 232.992188 119.207031 233.125 119.195312 C 233.167969 119.183594 233.214844 119.183594 233.257812 119.183594 C 233.347656 119.175781 233.433594 119.175781 233.523438 119.175781 C 233.566406 119.175781 233.625 119.175781 233.667969 119.175781 C 233.777344 119.175781 233.898438 119.183594 234.011719 119.195312 C 234.042969 119.195312 234.085938 119.207031 234.121094 119.207031 C 234.265625 119.230469 234.40625 119.261719 234.550781 119.296875 C 234.585938 119.308594 234.617188 119.316406 234.652344 119.328125 C 234.761719 119.363281 234.871094 119.40625 234.984375 119.449219 C 235.027344 119.460938 235.0625 119.484375 235.105469 119.503906 C 235.238281 119.570312 235.382812 119.636719 235.503906 119.714844 C 235.824219 119.914062 236.109375 120.15625 236.34375 120.421875 C 237.371094 121.527344 237.558594 123.285156 236.707031 124.691406 Z M 247.921875 112.441406 L 242.214844 121.738281 C 241.496094 122.910156 240.46875 123.816406 239.25 124.371094 C 239.261719 124.335938 239.261719 124.3125 239.273438 124.28125 C 239.285156 124.214844 239.308594 124.160156 239.316406 124.09375 C 239.339844 123.984375 239.375 123.859375 239.382812 123.75 C 239.394531 123.683594 239.40625 123.617188 239.417969 123.550781 C 239.429688 123.453125 239.441406 123.351562 239.449219 123.253906 L 246.871094 111.171875 C 246.761719 111.171875 248.21875 106.097656 244.503906 104.382812 L 236.398438 117.582031 C 236.332031 117.550781 236.253906 117.503906 236.1875 117.472656 C 236.144531 117.449219 236.101562 117.425781 236.054688 117.40625 C 235.921875 117.339844 235.78125 117.285156 235.636719 117.230469 C 235.613281 117.21875 235.582031 117.207031 235.558594 117.195312 C 235.390625 117.140625 235.238281 117.085938 235.070312 117.039062 C 235.027344 117.03125 234.984375 117.019531 234.9375 117.007812 C 234.804688 116.972656 234.671875 116.953125 234.539062 116.929688 C 234.496094 116.917969 234.464844 116.917969 234.417969 116.90625 C 234.253906 116.886719 234.085938 116.863281 233.921875 116.851562 C 233.878906 116.851562 233.84375 116.851562 233.800781 116.851562 C 233.722656 116.851562 233.65625 116.839844 233.578125 116.839844 C 233.535156 116.839844 233.492188 116.839844 233.445312 116.851562 C 233.359375 116.851562 233.257812 116.863281 233.167969 116.863281 C 233.082031 116.875 232.980469 116.875 232.894531 116.886719 C 232.804688 116.898438 232.707031 116.90625 232.617188 116.917969 C 232.527344 116.929688 232.429688 116.953125 232.339844 116.972656 C 232.25 116.996094 232.164062 117.019531 232.0625 117.039062 C 231.976562 117.0625 231.886719 117.085938 231.796875 117.117188 C 231.710938 117.152344 231.621094 117.171875 231.53125 117.207031 C 231.445312 117.238281 231.355469 117.273438 231.277344 117.304688 C 231.191406 117.339844 231.101562 117.382812 231.023438 117.417969 C 230.9375 117.460938 230.859375 117.503906 230.769531 117.550781 C 230.691406 117.59375 230.605469 117.636719 230.527344 117.683594 C 230.449219 117.726562 230.359375 117.78125 230.285156 117.835938 C 230.207031 117.890625 230.128906 117.9375 230.050781 117.992188 C 229.972656 118.046875 229.898438 118.113281 229.820312 118.167969 C 229.753906 118.222656 229.675781 118.277344 229.609375 118.34375 C 229.585938 118.367188 229.566406 118.378906 229.554688 118.398438 C 229.5 117.074219 229.839844 115.746094 230.558594 114.566406 L 236.265625 105.269531 C 237.21875 103.710938 238.722656 102.625 240.488281 102.207031 C 242.257812 101.785156 244.09375 102.074219 245.652344 103.023438 C 248.882812 105.023438 249.902344 109.238281 247.921875 112.441406 Z M 247.921875 112.441406 " fill-opacity="1" fill-rule="nonzero"/><path fill="#000012" d="M 162.753906 206.722656 C 171.765625 219.746094 185.3125 231.984375 185.3125 231.984375 C 185.3125 231.984375 217.976562 197.074219 224.566406 186.78125 C 210.667969 200.015625 185.3125 215.734375 185.3125 215.734375 C 185.3125 215.734375 173.632812 214.308594 162.753906 206.722656 Z M 162.753906 206.722656 " fill-opacity="1" fill-rule="nonzero"/><path fill="#000012" d="M 164.875 157.785156 L 162.917969 156.40625 C 162.917969 156.40625 167.871094 172.089844 179.75 188.652344 C 163.679688 176.789062 158.902344 164.242188 158.902344 164.242188 C 158.902344 164.242188 163.414062 188.054688 181.019531 201.839844 C 158.074219 188.085938 150.796875 167.59375 150.796875 167.59375 C 150.796875 167.59375 151.914062 192.078125 181.019531 211.421875 C 149.050781 197.050781 140.183594 170.71875 140.183594 170.71875 C 140.183594 170.71875 141.851562 186.671875 160.851562 208.582031 C 136.722656 184.449219 132.175781 169.792969 133.792969 165.09375 C 135.40625 160.40625 141.265625 153.949219 149.339844 154.679688 C 157.398438 155.410156 164.886719 153.363281 164.886719 153.363281 L 164.886719 157.785156 Z M 164.875 157.785156 " fill-opacity="1" fill-rule="nonzero"/><path fill="#000012" d="M 170.128906 123.132812 C 170.128906 123.132812 170.394531 127.753906 176.355469 134.261719 C 171.433594 131.203125 169.941406 128.703125 169.941406 128.703125 C 169.941406 128.703125 170.757812 134.0625 181.429688 141.039062 C 174.859375 139.015625 170.0625 133.433594 170.0625 133.433594 C 170.0625 133.433594 175.09375 142.554688 183.363281 146.753906 C 174.019531 143.4375 169.410156 136.453125 169.410156 136.453125 C 169.410156 136.453125 168.003906 130.152344 167.761719 125.828125 C 167.507812 121.507812 168.070312 119.5625 168.070312 119.5625 Z M 170.128906 123.132812 " fill-opacity="1" fill-rule="nonzero"/><g clip-path="url(#e5375b7537)"><path fill="#63ffcc" d="M 75.324219 131.257812 C 71.453125 118.367188 68.476562 104.925781 66.46875 91.25 C 75.925781 89.851562 86.851562 86.851562 99.015625 82.308594 C 112.257812 77.367188 127.179688 70.546875 143.371094 62.039062 C 162.664062 51.902344 179.382812 41.625 187.386719 36.5625 C 187.402344 36.574219 187.414062 36.582031 187.429688 36.59375 C 187.445312 36.582031 187.457031 36.574219 187.472656 36.5625 C 195.476562 41.625 212.195312 51.902344 231.488281 62.039062 C 247.679688 70.546875 262.601562 77.367188 275.84375 82.308594 C 288.007812 86.851562 298.933594 89.851562 308.390625 91.25 C 306.382812 104.925781 303.40625 118.367188 299.535156 131.257812 C 295.359375 145.144531 290.039062 158.746094 283.714844 171.710938 C 320.011719 132.402344 330.304688 73.570312 330.304688 73.570312 L 319.503906 73.441406 C 302.375 73.242188 275.25 63.644531 241.058594 45.6875 C 214.585938 31.78125 193.285156 17.726562 193.074219 17.582031 L 187.472656 13.875 L 187.429688 13.902344 L 187.386719 13.875 L 181.785156 17.582031 C 181.574219 17.726562 160.273438 31.78125 133.800781 45.6875 C 99.609375 63.644531 72.484375 73.242188 55.355469 73.441406 L 44.554688 73.570312 C 44.554688 73.570312 54.847656 132.402344 91.144531 171.710938 C 84.820312 158.746094 79.5 145.144531 75.324219 131.257812 " fill-opacity="1" fill-rule="nonzero"/></g><g clip-path="url(#4ce9bfdb06)"><path fill="#63ffcc" d="M 187.472656 281.402344 C 187.457031 281.390625 187.445312 281.382812 187.429688 281.371094 C 187.414062 281.382812 187.402344 281.390625 187.386719 281.402344 C 125.472656 241.753906 72.628906 162.171875 62.511719 146.9375 C 65.96875 156.789062 69.898438 166.449219 74.261719 175.808594 C 86.277344 201.597656 101.765625 225.628906 120.292969 247.238281 C 136.785156 266.476562 152.703125 280.214844 163.15625 288.351562 C 174.65625 297.304688 182.265625 301.671875 182.585938 301.851562 L 187.386719 304.59375 L 187.429688 304.566406 L 187.472656 304.59375 L 192.273438 301.851562 C 192.59375 301.671875 200.203125 297.304688 211.703125 288.351562 C 222.15625 280.214844 238.070312 266.476562 254.566406 247.238281 C 273.09375 225.628906 288.582031 201.597656 300.597656 175.808594 C 304.960938 166.449219 308.890625 156.789062 312.347656 146.9375 C 302.230469 162.171875 249.386719 241.753906 187.472656 281.402344 " fill-opacity="1" fill-rule="nonzero"/></g><g fill="#7ed957" fill-opacity="1"><g transform="translate(45.699428, 298.92078)"><g><path d="M 28.730469 -23.902344 C 25.511719 -26.257812 20.953125 -25.554688 18.59375 -22.335938 L 1.460938 1.070312 L 7.3125 5.355469 L 15.878906 -6.347656 L 33.433594 6.5 L 24.867188 18.203125 L 30.71875 22.488281 L 47.851562 -0.917969 C 50.207031 -4.136719 49.503906 -8.699219 46.285156 -11.054688 Z M 24.445312 -18.050781 L 42 -5.203125 L 37.71875 0.648438 L 20.164062 -12.199219 Z M 24.445312 -18.050781 "/></g></g></g><g fill="#7ed957" fill-opacity="1"><g transform="translate(90.292564, 329.345013)"><g><path d="M 28.628906 11.40625 C 32.335938 12.882812 36.574219 11.058594 38.050781 7.351562 L 48.785156 -19.59375 L 42.050781 -22.277344 L 31.316406 4.667969 L 11.105469 -3.382812 L 21.839844 -30.328125 L 15.101562 -33.011719 L 4.367188 -6.066406 C 2.890625 -2.359375 4.714844 1.878906 8.421875 3.355469 Z M 28.628906 11.40625 "/></g></g></g><g fill="#7ed957" fill-opacity="1"><g transform="translate(141.076955, 347.651501)"><g><path d="M 8.992188 1.140625 L 12.003906 -22.550781 L 31.746094 2.9375 C 32.332031 3.695312 33.179688 4.214844 34.171875 4.339844 C 36.148438 4.59375 37.972656 3.179688 38.222656 1.203125 L 42.335938 -31.171875 L 35.144531 -32.085938 L 32.132812 -8.390625 L 12.390625 -33.878906 C 11.800781 -34.636719 10.953125 -35.15625 9.964844 -35.28125 C 7.988281 -35.535156 6.164062 -34.121094 5.910156 -32.144531 L 1.796875 0.226562 Z M 8.992188 1.140625 "/></g></g></g><g fill="#7ed957" fill-opacity="1"><g transform="translate(194.825692, 352.676997)"><g><path d="M 33.195312 -40.765625 L -2.769531 -36.195312 L -1.859375 -29.003906 L 12.53125 -30.832031 L 16.1875 -2.054688 L 23.378906 -2.96875 L 19.722656 -31.746094 L 34.109375 -33.574219 Z M 33.195312 -40.765625 "/></g></g></g><g fill="#7ed957" fill-opacity="1"><g transform="translate(248.123477, 344.102142)"><g><path d="M 28.628906 -11.40625 C 32.378906 -12.898438 34.144531 -17.164062 32.683594 -20.828125 L 24.632812 -41.035156 C 23.15625 -44.742188 18.917969 -46.566406 15.210938 -45.089844 L -5 -37.039062 C -8.703125 -35.5625 -10.527344 -31.324219 -9.050781 -27.617188 L -1 -7.40625 C 0.476562 -3.703125 4.714844 -1.878906 8.421875 -3.355469 Z M -2.316406 -30.300781 L 17.894531 -38.351562 L 25.945312 -18.144531 L 5.738281 -10.089844 Z M -2.316406 -30.300781 "/></g></g></g><g fill="#7ed957" fill-opacity="1"><g transform="translate(297.583702, 322.471893)"><g><path d="M 13.585938 -45.890625 C 11.230469 -49.109375 6.671875 -49.816406 3.453125 -47.460938 L -19.953125 -30.328125 L 1.460938 -1.070312 L 7.3125 -5.355469 L -1.253906 -17.058594 L 2.1875 -19.574219 L 20.933594 -16.671875 C 21.949219 -16.515625 22.894531 -16.757812 23.699219 -17.347656 L 30.71875 -22.488281 L 26.4375 -28.339844 L 20.585938 -24.054688 L 10.449219 -25.625 L 16.300781 -29.90625 C 19.519531 -32.261719 20.226562 -36.824219 17.871094 -40.039062 Z M 7.734375 -41.609375 L 12.019531 -35.757812 L -5.535156 -22.910156 L -9.816406 -28.761719 Z M 7.734375 -41.609375 "/></g></g></g></svg>